%TF.GenerationSoftware,KiCad,Pcbnew,(6.0.5)*%
%TF.CreationDate,2022-06-21T15:00:39+05:30*%
%TF.ProjectId,ddr3-dimm,64647233-2d64-4696-9d6d-2e6b69636164,v01.0*%
%TF.SameCoordinates,Original*%
%TF.FileFunction,Profile,NP*%
%FSLAX46Y46*%
G04 Gerber Fmt 4.6, Leading zero omitted, Abs format (unit mm)*
G04 Created by KiCad (PCBNEW (6.0.5)) date 2022-06-21 15:00:39*
%MOMM*%
%LPD*%
G01*
G04 APERTURE LIST*
%TA.AperFunction,Profile*%
%ADD10C,0.025400*%
%TD*%
G04 APERTURE END LIST*
D10*
X84785200Y-116840000D02*
X84785200Y-108839000D01*
X218922600Y-114528600D02*
G75*
G03*
X218922600Y-114528600I-1244600J0D01*
G01*
X218567000Y-98069400D02*
G75*
G03*
X217805000Y-98806000I-12700J-749300D01*
G01*
X220014800Y-105841800D02*
X220014800Y-101066600D01*
X86995000Y-108077000D02*
X86995000Y-106603800D01*
X86233000Y-101066600D02*
G75*
G03*
X86995000Y-100304600I0J762000D01*
G01*
X86233000Y-108839000D02*
G75*
G03*
X86995000Y-108077000I0J762000D01*
G01*
X220014800Y-116840000D02*
X220014800Y-108839000D01*
X218567000Y-101066600D02*
X220014800Y-101066600D01*
X86233000Y-108839000D02*
X84785200Y-108839000D01*
X86233000Y-105841800D02*
X84785200Y-105841800D01*
X218567000Y-105841800D02*
X220014800Y-105841800D01*
X217805000Y-100304600D02*
G75*
G03*
X218567000Y-101066600I762000J0D01*
G01*
X218567000Y-98069400D02*
X220014800Y-98069400D01*
X217805000Y-106603800D02*
X217805000Y-108077000D01*
X217805000Y-108077000D02*
G75*
G03*
X218567000Y-108839000I762000J0D01*
G01*
X218567000Y-105841800D02*
G75*
G03*
X217805000Y-106603800I0J-762000D01*
G01*
X84785200Y-105841800D02*
X84785200Y-101066600D01*
X84785200Y-98069400D02*
X84785200Y-86360000D01*
X220014800Y-116840000D02*
X140335000Y-116840000D01*
X86995000Y-98806000D02*
G75*
G03*
X86233000Y-98069400I-749300J-12700D01*
G01*
X220014800Y-86360000D02*
X220014800Y-98069400D01*
X138811000Y-116840000D02*
X84785200Y-116840000D01*
X88417400Y-114528600D02*
G75*
G03*
X88417400Y-114528600I-1244600J0D01*
G01*
X139700000Y-116840000D02*
X139700000Y-113792000D01*
X86233000Y-98069400D02*
X84785200Y-98069400D01*
X86233000Y-101066600D02*
X84785200Y-101066600D01*
X86995000Y-106603800D02*
G75*
G03*
X86233000Y-105841800I-762000J0D01*
G01*
X141224000Y-116840000D02*
X141224000Y-113792000D01*
X217805000Y-98806000D02*
X217805000Y-100304600D01*
X84785200Y-86360000D02*
X220014800Y-86360000D01*
X218567000Y-108839000D02*
X220014800Y-108839000D01*
X141224000Y-113792000D02*
G75*
G03*
X139700000Y-113792000I-762000J0D01*
G01*
X86995000Y-100304600D02*
X86995000Y-98806000D01*
M02*
